<?xml version="1.0" encoding="utf-8"?>
<!-- Generator: Adobe Illustrator 23.0.1, SVG Export Plug-In . SVG Version: 6.00 Build 0)  -->
<svg version="1.1" xmlns="http://www.w3.org/2000/svg" x="0px" y="0px"
     viewBox="0 0 512 512" style="enable-background:new 0 0 512 512;" xml:space="preserve">
<style type="text/css">
	.st0{fill:#F9E130;}
	.st1{fill:#FFB829;}
	.st2{fill:#444B54;}
</style>
    <g id="Layer_1">
	<path class="st0" d="M424.4,396H247.6c-23.6,0-42-20-40-43.2l25.2-300c2-20.8,19.2-36.8,40-36.8h126.4c20.8,0,38,16,40,36.8
		l25.2,300C466.4,376,448,396,424.4,396z"/>
        <path class="st1" d="M296,340L296,340c-8.8,0-16-7.2-16-16V96c0-8.8,7.2-16,16-16l0,0c8.8,0,16,7.2,16,16v228
		C312,332.8,304.8,340,296,340z"/>
        <path class="st2" d="M303.9,476.1c0,17.6,14.4,32,32,32s32-14.4,32-32v-68h56.4c14.4,0,28.4-6,38.4-16.8
		c9.6-10.8,14.8-25.2,13.6-39.6l-25.2-300c-2.4-26.8-25.2-47.6-52-47.6H272.7c-26.8,0-49.6,20.8-52,47.6
		c-0.4,6.8,4.4,12.4,10.8,12.8c6.8,0.4,12.4-4.4,12.8-10.8c1.2-14.4,13.6-25.6,28-25.6h126.4c14.4,0,26.8,11.2,28,25.6l25.2,300
		c0.8,8-2,15.6-7.2,21.2c-5.2,6-12.8,9.2-20.8,9.2H247.5c-8,0-15.2-3.2-20.8-9.2c-5.2-6-8-13.6-7.2-21.2l18.8-223.2
		c0.4-6.8-4.4-12.4-10.8-12.8c-6.8-0.4-12.4,4.4-12.8,10.8l-18.8,223.2c-1.2,14.4,3.6,28.8,13.6,39.6c10,10.8,23.6,16.8,38.4,16.8
		L304,408L303.9,476.1z"/>
        <path class="st1" d="M376,340L376,340c-8.8,0-16-7.2-16-16V96c0-8.8,7.2-16,16-16l0,0c8.8,0,16,7.2,16,16v228
		C392,332.8,384.8,340,376,340z"/>
        <path class="st2" d="M249.8,408"/>
        <path class="st0" d="M348.2,470.5c0,6.6-5.4,12-12,12l0,0c-6.6,0-12-5.4-12-12l-0.1-59.1c0-6.6,5.4-12,12-12l0,0
		c6.6,0,12,5.4,12,12L348.2,470.5z"/>
        <path class="st2" d="M195,112.4l-15.7,6.3c-2.9,1.1-6.1-0.3-7.3-3.1v0c-1.1-2.9,0.3-6.1,3.1-7.3l15.7-6.3c2.9-1.1,6.1,0.3,7.3,3.1
		v0C199.3,108,197.9,111.3,195,112.4z"/>
        <path class="st2" d="M188.6,83.4l-21.1-1.7c-3.1-0.2-5.4-2.9-5.1-6l0,0c0.2-3.1,2.9-5.4,6-5.1l21.1,1.7c3.1,0.2,5.4,2.9,5.1,6v0
		C194.4,81.3,191.7,83.6,188.6,83.4z"/>
        <path class="st2" d="M196,55.6l-12.3-10.4c-2.4-2-2.7-5.5-0.7-7.9v0c2-2.4,5.5-2.7,7.9-0.7L203.2,47c2.4,2,2.7,5.5,0.7,7.9l0,0
		C201.9,57.3,198.4,57.6,196,55.6z"/>
</g>
    <g id="Layer_2">
</g>
</svg>
